<?xml version="1.0" encoding="UTF-8" standalone="no"?> <svg width="64" height="64" viewBox="0 0 64 64" fill="none" xmlns="http://www.w3.org/2000/svg">
<path d="M54.0001 47.9401C48.6758 48.3913 43.3394 47.2236 38.6901 44.5901C32.5091 41.1095 27.9615 35.3188 26.0454 28.4889C24.1294 21.6589 25.0014 14.3478 28.4701 8.16008C29.1317 6.99108 29.8769 5.87149 30.7001 4.81008C30.846 4.61735 30.9338 4.38701 30.9533 4.14611C30.9727 3.90521 30.9231 3.66374 30.8101 3.45008C30.6939 3.23543 30.5174 3.0595 30.3024 2.94399C30.0874 2.82849 29.8432 2.77846 29.6001 2.80008C24.7695 3.213 20.1175 4.82099 16.063 7.47923C12.0085 10.1375 8.6789 13.7625 6.37403 18.0278C4.06917 22.2931 2.86144 27.0647 2.85962 31.9129C2.8578 36.7611 4.06195 41.5336 6.36361 45.8007C8.66527 50.0677 11.9922 53.6952 16.0447 56.3565C20.0971 59.0178 24.748 60.6292 29.5782 61.0458C34.4085 61.4623 39.2666 60.6709 43.7148 58.7427C48.1631 56.8144 52.0619 53.8101 55.0601 50.0001C55.2095 49.8073 55.3003 49.5757 55.3216 49.3327C55.3429 49.0898 55.2938 48.8459 55.1801 48.6301C55.0687 48.4153 54.8988 48.2365 54.6899 48.1144C54.4811 47.9923 54.2419 47.9318 54.0001 47.9401ZM18.8801 55.2601C14.0958 52.5704 10.255 48.4737 7.87918 43.5261C5.50332 38.5785 4.70748 33.0196 5.59969 27.6041C6.4919 22.1886 9.02894 17.1788 12.8664 13.2548C16.7039 9.33087 21.6558 6.68279 27.0501 5.67008C26.7901 6.08008 26.5301 6.51008 26.2901 6.93008C23.8067 11.3453 22.5121 16.3297 22.5331 21.3953C22.554 26.461 23.8897 31.4345 26.4095 35.829C28.9294 40.2236 32.5469 43.8887 36.9082 46.4656C41.2695 49.0425 46.2251 50.443 51.2901 50.5301C47.1528 54.7613 41.74 57.5161 35.8842 58.3707C30.0285 59.2253 24.0541 58.1324 18.8801 55.2601V55.2601Z" fill="black"/>
<path d="M59.19 15.29C59.1175 15.0701 58.9858 14.8745 58.8094 14.7245C58.633 14.5746 58.4187 14.4761 58.19 14.44L51 13.4L47.79 6.90001C47.6866 6.69134 47.5269 6.51571 47.3291 6.39293C47.1312 6.27014 46.9029 6.20508 46.67 6.20508C46.4371 6.20508 46.2089 6.27014 46.011 6.39293C45.8131 6.51571 45.6534 6.69134 45.55 6.90001L42.34 13.4L35.16 14.4C34.9313 14.4361 34.717 14.5346 34.5406 14.6845C34.3642 14.8345 34.2325 15.0301 34.16 15.25C34.0901 15.4737 34.083 15.7123 34.1395 15.9398C34.1959 16.1673 34.3137 16.3749 34.48 16.54L39.67 21.6L38.45 28.75C38.4177 28.9294 38.4253 29.1137 38.4723 29.2899C38.5193 29.466 38.6046 29.6296 38.722 29.769C38.8395 29.9084 38.9862 30.0202 39.1518 30.0964C39.3174 30.1727 39.4977 30.2114 39.68 30.21C39.8816 30.2089 40.0801 30.161 40.26 30.07L46.68 26.69L53.1 30.07C53.3077 30.1774 53.5411 30.225 53.7742 30.2073C54.0073 30.1897 54.2309 30.1075 54.42 29.97C54.6087 29.8338 54.755 29.6469 54.8417 29.431C54.9284 29.215 54.9521 28.9789 54.91 28.75L53.69 21.6L58.88 16.54C59.0393 16.3788 59.1522 16.1776 59.2068 15.9576C59.2613 15.7376 59.2555 15.507 59.19 15.29V15.29ZM51.46 20.29C51.3158 20.4308 51.2077 20.6043 51.145 20.7958C51.0823 20.9874 51.0669 21.1912 51.1 21.39L52.01 26.69L47.25 24.19C47.0711 24.0963 46.872 24.0473 46.67 24.0473C46.468 24.0473 46.269 24.0963 46.09 24.19L41.33 26.69L42.24 21.39C42.2731 21.1912 42.2577 20.9874 42.195 20.7958C42.1323 20.6043 42.0243 20.4308 41.88 20.29L38 16.55L43.32 15.78C43.5205 15.7527 43.7113 15.6764 43.8752 15.5578C44.0392 15.4392 44.1714 15.2819 44.26 15.1L46.64 10.28L49.02 15.1C49.1087 15.2819 49.2408 15.4392 49.4048 15.5578C49.5688 15.6764 49.7595 15.7527 49.96 15.78L55.28 16.55L51.46 20.29Z" fill="black"/>
</svg>
