<?xml version="1.0" encoding="UTF-8" standalone="no"?> <svg id="Layer_1" data-name="Layer 1" xmlns="http://www.w3.org/2000/svg" viewBox="0 0 512 512"><title>Mute</title><path d="M463.085,48.915a21.338,21.338,0,0,0-30.171,0l-65.272,65.272a149.141,149.141,0,0,0-53.117-38.264,58.668,58.668,0,0,0-117.054.023,150.9,150.9,0,0,0-60.864,47.685,148.034,148.034,0,0,0-29.942,89.7v88.995a123.521,123.521,0,0,1-36.419,87.921A21.334,21.334,0,0,0,65.624,413.5c.261.631.56,1.238.876,1.833L48.915,432.915a21.334,21.334,0,0,0,30.171,30.171l384-384A21.336,21.336,0,0,0,463.085,48.915ZM149.333,302.327V213.332a106.06,106.06,0,0,1,75.548-102.045A21.334,21.334,0,0,0,240,90.879V80a16,16,0,1,1,32,0V90.88a21.333,21.333,0,0,0,15.12,20.408A106.492,106.492,0,0,1,337.4,144.431L145.96,335.869A168.6,168.6,0,0,0,149.333,302.327Z"/><path d="M405.333,302.327V218.51a21.333,21.333,0,1,0-42.667,0v83.817A166.086,166.086,0,0,0,383.914,384H197.177A21.321,21.321,0,0,0,192,426.008v.659a64,64,0,0,0,128,0H426.667a21.334,21.334,0,0,0,15.085-36.419A123.521,123.521,0,0,1,405.333,302.327ZM256,448a21.357,21.357,0,0,1-21.333-21.333h42.667A21.357,21.357,0,0,1,256,448Z"/></svg>